<?xml version="1.0" encoding="UTF-8"?>
<!DOCTYPE svg PUBLIC "-//W3C//DTD SVG 1.1//EN" "http://www.w3.org/Graphics/SVG/1.1/DTD/svg11.dtd">
<!-- Creator: CorelDRAW -->
<svg xmlns="http://www.w3.org/2000/svg" xml:space="preserve" width="200mm" height="200mm" version="1.1" style="shape-rendering:geometricPrecision; text-rendering:geometricPrecision; image-rendering:optimizeQuality; fill-rule:evenodd; clip-rule:evenodd"
viewBox="0 0 20000 20000"
 xmlns:xlink="http://www.w3.org/1999/xlink"
 xmlns:xodm="http://www.corel.com/coreldraw/odm/2003">
 <defs>
  <style type="text/css">
   <![CDATA[
    .str0 {stroke:white;stroke-width:14.11;stroke-miterlimit:22.9256}
    .str2 {stroke:#7F2E2F;stroke-width:52.92;stroke-miterlimit:22.9256}
    .str1 {stroke:white;stroke-width:20;stroke-miterlimit:22.9256}
    .fil5 {fill:none}
    .fil9 {fill:#FFFBD6}
    .fil10 {fill:#FFCC29}
    .fil6 {fill:#F6F8FB}
    .fil0 {fill:#7F2E2F}
    .fil8 {fill:white}
    .fil7 {fill:white}
    .fil2 {fill:#FFFBD6;fill-rule:nonzero}
    .fil3 {fill:#FFF688;fill-rule:nonzero}
    .fil1 {fill:#FFCC29;fill-rule:nonzero}
    .fil4 {fill:#FFCC29;fill-rule:nonzero}
   ]]>
  </style>
 </defs>
 <g id="Capa_x0020_1">
  <metadata id="CorelCorpID_0Corel-Layer"/>
  <path class="fil0" d="M5476.94 11169.66c-241.89,-368.82 -262.61,-873.34 104.31,-1184.05l5.13 -4.34 5.41 -4c287.54,-212.41 729.58,-163.34 1083.09,-69.53 462.5,-375.91 929.54,-444.27 1451.89,-159.22 170.91,93.26 321.91,208.73 482.93,316.38 73.15,48.91 198.76,131.17 292.47,141.88 205,-305.35 510.93,-564.63 811.23,-685.34l25.23 -10.14 27 -3.12c71.85,-8.33 140.72,-4.43 212.47,-5.72l177.78 -3.2 26.2 175.86c15.13,101.53 44.22,273.14 146.18,327.93 132.37,71.14 426.11,20.5 564.76,-5.79l251.05 -47.59c56.78,-36.25 112.16,-74.67 165.74,-115.56 549.29,-419.25 1109.87,-505.45 1665.47,-33.98l3.63 3.08c40.64,-6.55 81.5,-11.52 122.84,-16.74 53.23,-6.72 110.2,-14.05 161.26,-31.04l3.47 -1.16 3.52 -1.03c672.42,-197.03 1170.03,221.51 1020.21,921.11 -23.61,110.25 -66.05,216.41 -124.45,312.62 371.64,20.59 728.77,194.29 991.15,457.11 321.56,322.11 532.57,744.61 623.29,1188.86 59.59,235.17 40.48,462.11 40.98,701.38l0.02 8.61 -0.71 8.57c-28.96,348.88 -143.81,691.51 -335.02,985.06 -84.47,129.69 -184.17,249.71 -305.01,346.3 31.62,61.29 63.42,122.47 95.29,183.59 14.61,23.05 24.81,46.92 30.98,71.06l31.57 46.74c144.35,213.7 221,490.25 91.9,729.6 -501.49,1034.52 -4449.27,2020.47 -5243.24,1043.16 -133.51,-156.44 -146.05,-348.37 -139.51,-544.3 36.24,-1085.89 90.15,-1771.68 -143.02,-2775.72 -177.91,912.5 -175.24,1739.02 -62.31,2659.79 34.46,280.93 55.27,571.91 -190.01,782.67 -1002.6,861.38 -4830.83,269.63 -5354.18,-906.57 -103.98,-224.05 -29.22,-451.95 84.97,-653.97l58.12 -102.83c37.55,-78.57 75.43,-157.16 113.29,-235.87 -242.71,-163.08 -412.87,-412.96 -531.95,-677.21 -203.35,-430.75 -259.96,-921.91 -180.72,-1390.23 79.31,-468.8 294.31,-912.97 631.13,-1250.72 259.4,-277.76 622.26,-472.98 1004.17,-492.39zm9214.38 2477.46c15.2,-17.74 29.06,-35.56 40.24,-53.69l1.45 -2.35 1.52 -2.31c274.83,-419.62 172.56,-1056.17 -229.92,-1359.71l-1.86 -1.4 -1.82 -1.44c-62.61,-49.51 -138.05,-79.16 -216.5,-95.65 16.72,83.18 33.5,166.28 49.83,249.36 94.16,427.91 191.72,860.17 357.06,1267.19zm-9284.83 -1339.37c-105.67,21.57 -207.45,66.78 -284.62,141.49l-3.17 3.08 -3.31 2.93c-318.21,282.27 -445.3,781.93 -274.22,1175.86l3.93 9.05 3.03 9.4c32.19,99.7 100.97,189.48 175.13,270.34 47.58,-127.81 91.14,-257.04 129.3,-388.09 108.23,-402.66 186.14,-812.72 253.93,-1224.06z"/>
  <g id="_1674022503632">
   <path class="fil0" d="M7473.67 4627.43c-109.69,104.9 -218.33,210.91 -329.83,313.92l-157.28 145.32 -134.26 -166.83c-109.43,-136 -225.82,-229.28 -298.71,-377.12 -82.13,137.56 -200.25,252.35 -383.8,344.99 -311.59,157.29 -695.42,136.82 -1000.27,-26.64 -225.1,-114.53 -386.95,-324 -474.43,-557.79 -106.63,-285 -112.86,-592.04 -82.79,-891.56l0.38 -3.77 0.52 -3.75c42.58,-306.79 148.39,-612.68 374.65,-833.35 172.09,-167.83 435.22,-233.76 660.6,-139.84 50.2,20.92 91.02,48.76 126.27,81.73 37.1,-33.15 73.59,-66.91 110.54,-98.27l139.71 -118.6 130.33 128.84c14.64,14.48 53.65,60.86 84.33,92.89 4.44,-6.31 8.79,-12.32 12.99,-17.54 52.29,-65.14 117.5,-110.52 201.5,-124.18l289.78 -47.12 -62.22 286.92c-30.21,139.28 -104.21,247.85 -185.98,360.93 -67.13,92.84 -163.54,164.75 -272.58,195.29l256.84 384.25c25.01,-135.46 86.27,-261.9 194.57,-354.03 110.56,-94.05 231.2,-180.89 334.05,-283.34l196.88 -196.12 123.45 248.98c38.88,78.42 80.72,155.34 124,231.48 56.59,-73.47 112.64,-147.24 161.15,-225.43l160.34 -258.42 173.75 249.59c23.65,33.97 51.17,66.01 78.58,98.25 18.64,-29.62 37.16,-59.32 55.49,-89.14l163.74 -266.36 173.16 260.33c5.65,8.5 11.3,16.99 16.95,25.49 52.15,-71.91 123.53,-130.71 204.81,-168.35 97.97,-48 208.29,-31.22 289.82,41.71l114.12 102.09 -68.78 136.81c-1.95,3.88 -4,7.66 -6.12,11.38 5.59,6.01 10.92,11.86 15.61,17.34 0.07,0.07 0.14,0.15 0.21,0.23 75.87,-78.83 151.15,-158.72 237.04,-229.07l227.3 -186.18 89.85 279.74c40.08,124.79 90.12,237.84 149.48,353.7 64.15,-111.56 162.99,-190.27 269.65,-272.27 68.59,-52.72 132.92,-111.14 196.76,-169.44l178.06 -162.59 126.88 205.05c55.03,88.94 93.77,186.2 147.97,274.25 20.86,33.89 41.94,67.54 62.64,101.4 35.85,-51.45 80.52,-97.63 128.99,-142.75l2.11 -1.96 2.16 -1.9c116.83,-102.63 238.84,-199.53 369.17,-284.54l145.02 -94.6 114.39 129.98c78.84,89.6 152.78,183.76 218.05,283.72 50.08,-48.74 106.13,-89.81 165.27,-136.87 68.29,-54.34 132.47,-114.12 198,-171.72l176.11 -154.79 125.09 198.31c50.86,80.63 87.65,168.7 133.96,250.46 54.86,-69.98 106.5,-142.66 150.08,-219.76l139 -245.9 185.77 212.79c34.02,38.96 68.01,76.08 99.99,113.36 18.43,-29.54 36.86,-59.08 55.4,-88.55l159.19 -253.02 173.13 243.7c36.98,52.05 72.52,105.05 107.34,158.53 47.24,-60.33 95.6,-119.78 148.95,-175.87l181.76 -191.06 134.97 226.55c62.86,105.52 164.35,193.23 256.66,272.7l85.65 73.74c56.05,-60.29 116.46,-116.91 177.57,-175.68 71.57,-71.94 145.14,-141.84 219.75,-210.6l144.33 -133.03 135.71 141.82c126.57,132.27 275.97,242.44 445.54,312.97l211.67 88.03 -115.94 197.78c-25.73,43.89 -58.3,77.47 -96.9,109.81 -7.09,5.95 -17.41,13.66 -26.13,21.14 -20.99,52.57 -26.59,116.43 -28.49,170.86 -3.65,104.68 -8.26,211.73 -1.43,317.01 25.08,-2.22 50.8,-0.9 76.86,4.24l220.55 43.47 -68.84 214c-31.89,99.14 -85.47,153.95 -147.55,232.5l-1.64 2.08 -1.7 2.03c-69.62,83.46 -135.02,170.29 -205.48,253.12l-155.96 183.33 -151.67 -186.91c-42.2,-52 -83.73,-100.59 -120.76,-150.66 -68.19,64.06 -137.31,127.22 -214.53,183.09l-206.52 149.42 -95.99 -236.15c-26.57,-65.37 -55.03,-128.54 -83.31,-191.06 -65.8,84.23 -132.64,167.62 -201.88,249.08l-153.81 180.95 -152.15 -182.35c-44.18,-52.95 -95.16,-98.38 -138.63,-153.45 -55.84,-70.75 -95.43,-149.07 -108.31,-235.83l-3.16 3.09c-134.78,131.78 -252.72,278.24 -392.43,405.92l-159.23 145.51 -133.08 -169.75c-86.96,-110.92 -189.58,-210.73 -310.81,-283.68l-11.99 -7.22c-107.85,103.12 -219.85,201.76 -325,307.61l-160.18 161.24 -139.56 -179.4c-84.58,-108.72 -183.43,-195.13 -260.39,-313.43 -8.77,-13.48 -16.78,-26.94 -24.09,-40.4 -122.54,115.87 -242.57,234.65 -353.88,361.34l-188.03 214.03 -137.42 -249.56c-34.99,-63.55 -80.78,-122.93 -123.8,-181.17 -32.1,-43.45 -63.22,-86.73 -91.76,-131.76 -120.14,122.02 -250.04,232.85 -368.9,356.26l-147.14 152.75 -143.86 -155.84c-78.67,-85.21 -157.22,-170.54 -231.04,-260.04 -73.2,-88.76 -111.82,-184.99 -132.93,-286.23 -34.26,52.75 -69.87,103.68 -104.39,152.51l-2.21 3.06c-109.08,148.31 -205.29,294.25 -350.48,411.35l-124.51 100.43 -125.33 -99.41c-90.16,-71.5 -191.78,-175.14 -296.38,-222.63l-3.58 -1.67c-53.42,-25.54 -114.01,-42.37 -170.45,-60.22l-84.3 -26.66c-96.04,96.96 -186.95,199.05 -282.99,296.05l-154.88 156.43 -140.91 -169.12c-90.18,-108.24 -191.17,-214.57 -313.14,-287.2l-16.04 -9.55zm37.32 -621.23c-0.39,-23.82 -0.53,-47.43 -0.04,-70.67 -1.18,-53.91 1.3,-110.4 2.03,-166.61 -112.01,87.38 -227.16,170.54 -340.93,255.61 5.74,71.11 15.8,151.61 45.3,205.31 44.9,-39.49 91.4,-77.14 139.91,-112.27l153.73 -111.37zm3048.03 90.1c1.39,-32.44 2.86,-65.63 3.43,-100.05l0.1 -6.06 0.46 -6.03c3.93,-50.87 5.7,-101.35 7.21,-151.68 -85.78,63.23 -172.85,125.07 -254.92,192.4 -0.53,63.88 15.54,130.61 35.32,188.45 1.62,4.75 3.6,9.38 5.89,13.88 31.2,-27.17 64.71,-52.4 104.18,-74.89l98.33 -56.02zm1953.04 52.74c-0.17,-31.83 -1.15,-62.41 -0.85,-86.52 -1.54,-97.88 1.3,-196.43 0.06,-294.62 -112.2,87.1 -226.45,171.47 -340.65,255.92 4.72,72.33 14.53,151.25 43.62,204.28 21.81,-20.08 44.3,-39.61 68.13,-58.2l42.77 -33.38 53.78 -7.18c47.63,-6.36 93.44,1.19 133.14,19.7zm-1042.49 -74.14c-5.36,-134.38 -9.85,-268.49 -3.42,-402.84 -19.54,14.93 -39.6,29.38 -60.59,42.9l-58.81 37.88 -69.6 -7.02c-4.15,-0.42 -8.31,-0.83 -12.47,-1.24 -1.29,137.74 1.75,275.45 12.5,412.67l0.31 4 0.16 4.01c0.15,3.95 1.24,8.57 3.13,13.74 47.74,-41.79 99.88,-75.13 163.17,-95.75l25.62 -8.35zm2007.01 53.81c-0.11,-132.87 0.04,-265.76 0.19,-398.64 -15.27,24.53 -30.57,49.05 -45.77,73.65l-76.13 123.19 -140.8 -33.88c-5.26,-1.27 -10.5,-2.6 -15.74,-3.91 -0.15,98.83 -0.33,197.66 0.27,296.49 40.27,-23.22 84.44,-38.38 134.41,-43.16l143.57 -13.74zm-5011.88 7.04c0.68,-87.78 -0.13,-175.57 -2.12,-263.32l-0.06 -2.92 0.01 -2.91c0.19,-28.92 2.57,-70.83 1.58,-111.65 -14.22,22.71 -28.59,45.34 -43.08,67.88l-178.96 278.33 -42.53 -74.99c-0.18,52.81 -0.2,105.62 0.17,158.43 11.05,-8.05 22.47,-15.89 34.36,-23.48l182.02 -116.18 48.61 90.81zm-2373.11 -947.94c-9.21,0.29 -18.28,0.29 -27.22,0.02 11.31,8.85 22.5,17.95 33.53,27.44l-6.31 -27.46zm-501.32 627.44c-1.29,14.14 -1.63,24.97 -0.29,29.28 12.71,36.79 50.27,72.54 90.13,79.99 4.16,-2.93 8.76,-8.22 11.41,-12.86 -26.04,-35.4 -65.2,-68.08 -101.25,-96.41zm3563.36 416.67c3.49,2.31 6.99,4.62 10.5,6.92 15.27,-32.16 27.03,-65.06 32.46,-97.72 5.47,-54.87 8.21,-115.19 -2.86,-169.52 -11.26,-33.6 -25.96,-66.95 -42.21,-99.91 0.34,120.09 2.42,240.23 2.11,360.23z"/>
  </g>
  <path class="fil1" d="M8727.29 3009.48c24.55,-12.7 48.05,-9.32 70.06,10.37 -20.96,41.69 -60.74,79.37 -56.72,129.52 20.95,46.99 62.64,80 93.75,120.01 49.32,56.29 74.5,127.82 99.47,197.03 146.88,-124.87 266.04,-279.57 415.66,-402.12 218.6,680.58 540.42,629.12 26.04,1356.84 -96.51,131.21 -186.88,270.9 -314.93,374.18 -109.41,-86.78 -209.3,-189.63 -337.98,-248.05 -62.86,-30.05 -130.16,-49.52 -196.4,-70.47 59.68,-71.33 136.07,-144.76 137.14,-244.45 3.38,-121.48 1.9,-242.97 -0.85,-364.44 0.64,-98.42 9.95,-201.49 -31.53,-293.76 -41.48,-93.55 -91.44,-189.21 -84.44,-294.82 -7.63,-118.3 77.03,-222.85 180.73,-269.84zm-2987.94 -213.34c99.89,-66.24 184.34,-151.95 275.34,-229.2 74.5,73.65 143.5,193.23 264.97,176.3 99.9,-17.57 111.55,-154.5 206.56,-169.95 -23.27,107.3 -89.1,198.94 -152.59,286.13 -54.81,76.41 -142.01,134.19 -239.15,128.05 -126.98,8.26 -221.38,-90.37 -303.08,-173.13 -68.77,57.36 -144.12,133.55 -137.13,229.85 45.08,172.27 230.9,235.34 344.97,352.38 151.53,141.16 222.44,378.62 126.98,570.37 -106.03,212.49 -393.01,288.26 -598.94,180.32 -167.83,-79.79 -241.27,-296.08 -169.31,-465.18 12.48,-3.18 37.67,-9.54 50.16,-12.5 -6.78,79.59 -35.14,161.49 -7.2,240.22 41.06,121.06 160.64,213.97 289.53,216.09 141.58,-8.89 253.76,-177.36 179.47,-307.31 -94.39,-150.68 -277.67,-217.56 -373.34,-367.62 -49.52,-81.05 -46.97,-180.74 -35.55,-271.53 29.21,-143.07 143.91,-243.18 237.68,-346.68 -35.14,-89.09 -114.29,-173.96 -217.58,-167.62 -104.34,-3.37 -184.76,83.6 -223.7,172.49 -103.91,223.29 -127.19,473.66 -130.79,716.83 6.14,245.93 41.26,509.64 200.21,707.52 203.39,251.22 600,272.8 863.49,107.94 137.79,-84.66 226.45,-230.69 271.75,-383.07 12.07,-35.13 1.9,-71.74 -6.13,-106.67 23.06,34.5 49.52,66.24 79.15,95.45 -64.45,311.91 -127.25,571.02 -455.45,733.55 -253.34,131.01 -569.95,108.15 -817.57,-25.4 -180.75,-91.22 -310.28,-263.07 -379.69,-450.58 -96.09,-254.81 -97.99,-533.76 -71.11,-801.49 36.19,-260.74 122.54,-530.37 316.19,-717.67 114.08,-112.81 293.13,-160.85 444.03,-98.41 79.15,33.43 124.87,110.26 167.83,180.52zm8906.05 504.56c70.06,-70.48 142.03,-138.85 215.04,-206.14 145.81,152.38 317.88,278.11 513.23,359.36 -28.79,49.11 -82.95,73.87 -117.88,117.89 -44.45,85.08 -57.79,183.06 -60.98,278.1 -5.06,141.59 -10.57,284.43 7.23,425.61 13.11,62.65 39.35,138.2 97.55,169.73 44.66,-23.49 73.87,-82.33 131.85,-70.9 -21.38,66.46 -71.75,116.19 -114.07,169.74 -69.21,82.96 -134.19,169.3 -204.24,251.64 -86.56,-106.67 -190.91,-211.64 -210.58,-354.08 -135.87,112.59 -254.17,246.98 -397.24,350.49 -92.91,-228.57 -222.01,-446.79 -259.26,-693.98 -23.71,-155.35 19.68,-312.81 93.11,-449.11 76.62,-136.29 194.93,-241.26 306.24,-348.35zm-128.66 593.44c31.95,209.31 123.17,405.29 225.6,588.8 47.83,-45.94 100.52,-86.78 145.41,-135.88 11.63,-248.69 -38.32,-515.57 73,-749.01 -97.35,-70.26 -188.57,-148.57 -281.06,-224.76 -142.21,128.89 -182,336.71 -162.95,520.85zm-985.41 -457.77c94.6,-115.15 179.26,-238.54 282.12,-346.67 75.77,127.18 186.87,226.24 297.99,321.91 -63.06,44.87 -143.28,93.31 -139.89,182.21 -6.78,234.28 -2.96,469.21 -2.12,703.71 -4.03,72.59 32.39,137.35 83.81,185.82 28.36,-31.34 56.92,-62.43 84.88,-93.97 10.57,8.05 31.72,24.55 42.32,32.8 -96.94,126.35 -194.73,252.28 -297.99,373.76 -82.11,-98.41 -210.17,-189.21 -204.87,-331.01 -1.69,-304.13 -0.86,-608.25 -0.63,-912.37 5.71,-43.2 -23.71,-75.77 -47.41,-107.53 -37.88,31.12 -69.84,82.97 -124.45,82.12 -29.85,-34.5 6.35,-63.49 26.24,-90.78zm-757.45 -351.14c97.76,111.98 225.17,223.93 230.88,383.51 84.87,-125.72 163.62,-255.25 244.45,-383.72 69.63,98.01 133.98,199.6 198.1,301.18 -56.72,107.3 -122.75,209.3 -186.45,312.38 -6.15,-1.48 -18.62,-4.66 -24.77,-6.14 -44.23,-83.38 -88.04,-167.19 -143.91,-243.59 -37.48,51.64 -99.27,97.98 -94.18,168.25 1.48,233.02 -1.49,466.24 1.92,699.26 -8.91,57.99 42.94,91.44 79.99,125.93 22.85,16.94 45.27,46.77 77.66,39.57 68.35,-42.53 108.15,-132.06 194.49,-140.32 -3.17,13.34 -9.71,40.01 -13.11,53.34 -132.91,129.96 -249.95,275.56 -387.52,401.28 -102.21,-130.37 -222.64,-245.94 -365.08,-331.65 33.65,-30.26 73.02,-57.15 96.52,-97.13 37.66,-96.95 26.45,-203.19 28.36,-304.97 -2.54,-152.4 5.07,-305.22 -6.57,-457.16 -2.54,-66.03 -44.87,-117.67 -92.27,-158.94 -40.86,35.97 -78.53,78.73 -133.55,92.07 -5.29,-33.46 5.72,-64.34 29.64,-87.82 97.14,-115.16 191.1,-233.89 265.4,-365.33zm-1837.26 251.65c109.61,-96.28 224.13,-187.5 346.45,-267.29 85.29,96.92 164.86,200 231.96,310.48 -75.13,52.48 -140.94,117.25 -217.79,166.76 -6.34,-0.64 -19.24,-1.9 -25.6,-2.54 -66.24,-78.3 -123.59,-164.01 -192.38,-240.42 -13.97,289.11 -24.12,579.89 -1.47,869 4.86,127.61 108.35,215.02 179.23,310.48 85.94,-65.82 143.09,-175.46 248.91,-209.95 2.1,15.45 5.92,46.55 7.83,62.01 -157.88,146.88 -313.44,296.09 -455.87,458.21 -79.37,-144.14 -198.74,-261.82 -270.7,-410.38 -49.74,-121.48 -26.87,-256.08 -24.77,-383.7 11.43,-148.16 2.99,-297.78 27.53,-444.87 14.82,-90.17 82.54,-158.1 146.67,-217.79zm-3465.41 176.51c100.1,-146.44 219.05,-279.16 312.8,-430.26 84.87,121.91 222.01,224.77 222.86,386.67 82.12,-128.89 165.72,-256.93 245.73,-387.09 66.87,100.53 133.52,201.26 197.24,303.7 -62.04,111.54 -128.05,220.96 -197.04,328.26 -51.01,-89.94 -97.78,-183.08 -161.48,-265.19 -34.3,52.7 -96.74,98.19 -91.23,167.42 2.55,246.11 -4.23,492.47 2.33,738.4 33.24,58 94.6,94.61 142.86,139.9 65.41,-55.02 123.8,-119.16 196.4,-165.5 32.17,60.09 -34.72,95.44 -67.08,135.44 -109.21,107.3 -210.38,222.23 -318.09,331.02 -105.62,-126.77 -221.6,-245.94 -364.46,-331.02 44.86,-41.27 102.43,-81.06 110.68,-146.45 18.62,-126.77 5.08,-255.66 8.27,-383.28 -3.19,-120.63 9.73,-242.11 -8.91,-361.92 -6.76,-54.81 -50.15,-91.63 -86.12,-128.66 -34.71,24.53 -62.43,56.29 -88.04,89.72 -14.18,-5.28 -42.54,-15.87 -56.72,-21.16zm4469.85 -272.58c71.32,-55.87 137.36,-118.1 205.51,-178 59.67,94.6 99.46,200 160.2,294.19 44.66,71.1 89.53,142.01 127.62,217.13 -153.65,121.07 -311.96,236.2 -468.99,352.81 9.52,151.11 6.99,319.16 104.55,444.87 39.15,55.87 97.15,94.39 159.57,120.21 57.79,-55.66 112.39,-114.9 175.88,-164.44 47.61,-6.36 46.35,49.95 15.23,70.26 -134.39,137.15 -281.06,261.37 -416.27,397.47 -80.01,-102.85 -178.87,-190.47 -250.6,-299.69 -76.41,-118.5 -72.16,-264.13 -83.16,-399.36 -6.15,-151.75 -12.51,-303.71 -2.34,-455.46 4.44,-67.09 19.05,-134.8 55.45,-192.38 51.85,-88.04 139.47,-144.76 217.35,-207.61zm20.11 96.93c-15.46,170.15 -8.69,341.16 0.42,511.32 68.35,-50.37 135.24,-102.87 202.96,-154.08 -65.18,-120.43 -133.13,-239.58 -203.38,-357.24zm-1880.22 -94.61c73.44,-55.87 141.59,-118.1 209.73,-180.32 54.61,88.26 92.7,185.62 147.73,273.86 47.62,78.53 98.2,155.57 140.53,237.47 -148.57,119.78 -310.47,223.06 -453.34,349.62 -24.33,117.47 -2.11,241.49 35.78,354.29 34.28,98.21 115.33,171.22 207.61,215.25 60.53,-58.84 116.4,-124.87 190.7,-167.2 9.94,7.83 29.83,23.28 39.78,31.11 -138.63,155.55 -300.96,287.62 -445.29,437.46 -76.19,-82.53 -151.75,-165.71 -223.7,-251.64 -110.48,-135.24 -110.48,-318.94 -115.35,-484.45 -9.81,-150.95 -32.07,-393.06 18.19,-533.97 38.32,-125.08 149,-205.08 247.63,-281.48zm21.58 83.81c-10.15,173.55 -13.11,348.36 4.02,521.48 67.94,-49.1 132.92,-102.64 200.43,-152.8 -64.55,-124.66 -138.2,-244.66 -204.45,-368.68zm-3298.41 27.52c114.7,-98.42 238.09,-186.89 345.6,-293.98 87.2,175.88 188.36,343.92 288.27,512.81 -139.92,111.95 -286.17,215.67 -429,323.6 -17.37,17.14 -49.53,32.38 -42.34,62.01 11.64,137.57 14.81,286.77 98.21,403.59 39.79,60.33 100.53,103.5 168.03,127.63 75.34,-75.77 154.93,-147.73 241.7,-210.59 -16.49,49.1 -29.21,103.51 -70.91,138.43 -132.26,125.06 -261.79,252.9 -395.56,376.49 -108.99,-135.44 -260.5,-250.56 -306.87,-425.4 -38.31,-220.31 -36.83,-444.85 -34.7,-667.72 0.63,-127.2 36.82,-262.01 137.57,-346.87zm162.95 -26.46c-17.77,172.7 -16.08,346.87 -0.22,519.78 65.62,-47.6 128.49,-98.39 192.4,-148.14 -49.32,-131.22 -136.3,-243.38 -192.18,-371.64zm1990.06 230.48c-10.79,231.75 -2.33,464.34 -3.59,696.51 3.81,29.2 -5.71,63.91 12.7,89.31 82.96,62.85 173.75,114.29 261.79,169.73 74.51,-104.54 147.52,-217.56 166.99,-347.29 8.47,-82.12 10.59,-166.78 -8.04,-247.62 -33.44,-105.19 -91.22,-200.22 -142.02,-297.58 -44.86,-78.72 -78.09,-164.22 -132.48,-237.25 -49.31,60.11 -116.19,107.09 -155.35,174.19z"/>
  <g id="_1674022504592">
   <path class="fil0" d="M10550.38 7396.11c-89.02,133.79 -193.61,255.67 -301.36,375.26 -55.49,61.59 -116.66,117.76 -185.2,164.59l-117.38 80.19 -114.32 -84.49c-95.38,-70.5 -205.72,-162.68 -319.01,-200.2 -38.25,-12.66 -76.02,-23.7 -113.44,-37.05 -68.09,70.37 -133.44,143.59 -201.33,214.09l-145.8 151.38 -143.97 -153.12c-43.1,-45.84 -84.77,-89.22 -121.99,-134.67 -68.65,57.69 -137.32,115.81 -213.92,165.37l-184.78 119.58 -101.39 -195.36c-48.72,-93.88 -106.65,-186.11 -159.28,-280.63 -183.85,230.14 -479.99,359.26 -769.67,380.76 -204.94,15.21 -409.99,8.88 -600.38,-76.03 -106.96,-42.5 -191.39,-106.29 -275.61,-178.09 -28.08,61.91 -76.07,115.15 -144.42,147.35 -220.54,124.03 -503.05,-28.24 -556.69,-267.72 -47.21,-181.01 30.97,-358.87 166.79,-473.26 -19.07,-15.26 -37.23,-32 -54.29,-50.25l-5.71 -6.1 -5.18 -6.57c-34.19,-43.3 -67.76,-101.47 -106.04,-139.24l-125.51 -123.86 107.15 -140.04c31.89,-41.67 66.45,-81.27 103.18,-118.74l31.7 -32.36c-52.39,-129.09 -61.37,-275.97 -1.52,-404.53 99.87,-239.23 343.54,-400.96 602.36,-405.97 187.47,-3.63 381.72,38.23 539.43,137.74 17.88,-14.7 37.45,-28.05 58.94,-39.83 218.26,-133.19 513.99,-146.42 719.3,19.86 80.78,65.42 128.12,143.91 176.93,233.32 8.07,14.78 17.79,33.38 28.69,51.89 4.29,-0.76 8.57,-1.51 12.86,-2.24l287.16 -49.34 -57.19 285.71c-3.08,15.39 -6.45,30.74 -9.53,46.14l-19.05 95.14 -86.51 43.93c-20.49,10.4 -41.18,20.34 -62.01,29.98 27.43,30.7 52.3,64.02 74.04,100.24 29.83,-37.06 62.67,-73.02 97.99,-107.93l1.96 -1.94 2.02 -1.88c133.62,-124.99 278.19,-236.32 417.32,-354.79l127.4 -108.47 129.25 106.24c99.56,81.83 206.89,162.48 324.25,219.41 6.45,-32.6 17.53,-64.15 34.68,-94.87 86.76,-155.43 250.08,-273.86 435.42,-241.56l240.99 42 -89.05 227.83c-0.88,2.25 -1.78,4.45 -2.7,6.62 1.79,1.86 3.56,3.74 5.32,5.62 75.99,-68.16 152.31,-135.89 234.8,-197.25l211.25 -157.14 94.73 245.65c25.23,65.43 57.65,128.48 91.87,191.07 73.06,-82.83 146.91,-164.77 227.1,-241.22l155.57 -148.33 136.75 165.84c75.19,91.19 165.26,169.7 259.62,240.43l12.49 9.36c9.33,-9.45 19.2,-18.63 29.63,-27.5 115.75,-98.45 251.23,-172.17 363.62,-271.3l183.43 -161.78 122.14 211.91c39.07,67.79 80.23,134.34 123.08,199.78 56.04,-64.07 108.93,-131 160.11,-198.81l141.24 -187.13 162.53 168.97c33.53,34.86 66.8,67.12 98.09,99.23 20.09,-27.78 40.35,-55.42 61.06,-82.72l154.73 -204.02 160.47 199.54c71.46,88.86 141.78,178.54 205.65,273.08l2.8 4.15c8.02,-6.94 16.13,-13.76 24.32,-20.47 112.52,-92.15 222.05,-187.85 335.16,-279.31l131 -105.93 126.64 111.1c123.28,108.15 261.74,207.7 419.24,258.69l132.62 42.94 5.62 139.28c3.52,87.31 -35.7,164.39 -103.2,217.93 -14.52,11.52 -29.01,20.08 -43.39,29.01 -23.74,78.79 -19.79,190.8 -22.79,268.61 -0.04,13.68 -0.2,42.75 1.04,73.55 30.24,-0.27 61.13,5.89 91.29,19.32 42.12,18.77 67.92,43.77 96.63,77.75l97.2 115.02 -83.68 125.2c-93.9,140.51 -216.25,234.67 -323.49,359.65l-139.52 162.59 -152.62 -150.36c-46.19,-45.5 -90.48,-90.5 -129.47,-138.41 -66.7,53.5 -133.43,106.98 -202.38,157.69l-179.44 131.97 -111.95 -192.57c-50.57,-86.98 -94.06,-177.07 -138,-267.11 -21.19,20.13 -44.33,37.32 -64.77,57.27l-4.64 4.53 -4.93 4.22c-98.45,84.31 -187,177.45 -289.71,257.48l-144.77 112.8 -124.8 -134.56c-86.25,-92.99 -183.86,-179.56 -297.29,-237.96l-27.05 -13.93c-105.46,86.01 -213.67,169.6 -312.97,262.54l-143.84 134.64 -136.78 -141.8c-83.73,-86.79 -167.68,-152.39 -237.97,-236.93 -74.44,85.68 -150.13,169.82 -234.66,246.46l-150.48 136.44 -134.09 -152.57c-29.64,-33.73 -65.89,-64.41 -97.66,-96.56 -54.21,-54.87 -99.4,-113.28 -128.5,-185.47l-12.43 -30.82 -1.79 -33.18c-2.88,-53.23 -4.51,-106.45 -5.36,-159.66zm-1187.37 -546.69c-3.51,2.42 -6.86,4.83 -9.93,7.18 -27.64,93.65 -21.31,218.59 -24.31,314.37 0,7.52 0.18,22.19 0.97,39.27 11.58,-0.84 23.66,-0.95 36.33,-0.25 1.42,-107.03 -0.88,-214.16 -0.04,-321.17l0.06 -3.81c0.28,-10.48 -0.6,-23.07 -3.08,-35.59zm2817.53 329.9c0.59,-77.15 0.83,-154.3 0.32,-231.45l-70.48 51.13 -10.85 -19.47c-79.87,51.76 -160.88,101.91 -239.11,155.73 5.37,47.59 14.86,95.52 34.21,126.93 0.59,-0.49 1.17,-0.96 1.74,-1.42 73.73,-59.67 156.42,-93.59 253.04,-84.41l31.13 2.96zm776.08 6.48c-2.1,-17.11 -3.64,-34.26 -4.59,-51.44l-50.4 69.23c17.63,-7.19 35.9,-13.17 54.99,-17.79zm-58.43 19.21l-32.39 -51.39c0.01,22.17 0.08,44.33 0.24,66.49 10.5,-5.48 21.2,-10.52 32.15,-15.1zm-5549.63 -308.97c-44.33,188.7 -120.62,272.71 -253.53,359.62 24.46,18.19 49.11,36.17 74.18,53.65 84.56,58.97 177.02,113.83 279.78,132.74l4.04 0.75 4.01 0.91c102.5,23.25 266.74,-62.51 258.86,-179.2l-0.26 -3.77 -0.11 -3.77c-3.43,-115.18 -113.48,-217.95 -199.88,-281 -45.61,-33.27 -105.79,-66.15 -167.09,-79.93zm2696.11 118.14c0.54,59.17 0.64,118.35 -1.41,177.52 -0.09,17.75 -1.13,45.23 -1.3,71.14 4.57,2.53 9.16,5.05 13.76,7.55 10.66,-20.93 19.62,-42.54 26.26,-64.71 6.34,-46.26 9.28,-108.18 -13.39,-148.04l-1.11 -1.94 -1.06 -1.97c-7.14,-13.24 -14.4,-26.42 -21.75,-39.55z"/>
  </g>
  <path class="fil1" d="M6073.95 6173.35c68.16,-168.04 242.12,-284.66 423.29,-286.99 211.84,-5.28 447.4,61.81 573.75,244.03 22.22,-68.15 53.98,-138 120.63,-172.7 146.04,-91.22 353.88,-111.33 493.55,1.9 115.13,93.13 139.9,253.98 253.13,348.36 41.48,-8.24 83.17,-16.5 125.08,-23.7 -2.33,11.64 -7.2,34.5 -9.53,46.14 -121.69,61.79 -250.58,107.3 -372.06,169.31 123.38,55.25 243.17,133.76 310.47,254.82 316.86,529.34 -128.75,967.53 -649.52,1007.84 -170.59,10.99 -349.42,10.99 -507.94,-60.96 -219.26,-85.08 -346.46,-315.98 -574.82,-384.55 -82.75,-33.23 -186.67,5.5 -221.58,88.67 -23.07,45.3 -7.84,96.72 -4.44,144.77 48.03,-58.41 114.91,-131.65 198.93,-96.5 100.32,23.48 105.4,186.03 12.71,223.06 -104.56,65.61 -247.63,-23.28 -270.69,-136.51 -40.43,-145.82 72.16,-284.65 203.81,-333.34 162.53,-74.92 345.18,-34.49 508.57,15.25 49.52,-46.56 99.89,-95.88 124.66,-160.85 57.98,-134.18 41.69,-282.97 42.96,-424.97 -15.46,-177.15 -51.86,-357.68 -140.11,-513.88 -62.65,-119.78 -209.74,-197.87 -343.07,-157.87 -111.32,25.39 -175.24,187.51 -85.29,270.26 99.68,91 218.62,160.64 307.09,264.12 95.66,100.75 108.57,272.6 24.13,383.92 -127.83,180.11 -426.46,206.99 -578.63,44.24 -41.27,-52.28 -74.71,-110.48 -122.54,-157.68 26.88,-35.13 56.09,-68.57 87.19,-100.31 7.42,87.41 22.23,182.43 94.82,241.06 87.41,85.92 252.91,109.2 338.62,9.52 26.67,-51.22 27.31,-123.18 -16.29,-165.29 -93.76,-97.35 -231.96,-145.4 -306.46,-262.43 -59.47,-91.65 -90.16,-216.31 -40.42,-318.74zm7351.14 427.94c111.32,-92.7 221.37,-187.3 334.18,-278.52 144.76,126.99 304.55,238.73 489.53,298.62 2.74,67.94 -97.79,71.54 -120.43,132.49 -50.79,115.98 -43.81,246.77 -49.1,370.8 0.22,124.01 -4.02,279.15 117.25,352.8 19.04,-20.11 38.94,-39.37 59.47,-57.99 27.32,-34.01 44.04,-9.16 59.47,9.1 -85.72,128.26 -209.1,224.13 -308.99,340.54 -86.36,-85.08 -180.32,-176.73 -205.93,-300.11 -130.38,97.56 -253.54,204.23 -384.77,300.74 -70.26,-120.85 -126.56,-248.68 -190.05,-372.91 -62.01,-134.6 -98.84,-290.8 -55.45,-436.62 44.66,-142.43 139.26,-265.82 254.82,-358.94zm-6.35 352.59c9.1,202.97 127.83,375.46 219.05,549.84 51.85,-37.24 102.01,-76.82 153.86,-114.07 -6.56,-213.75 -31.54,-442.32 62.01,-641.91 -92.27,-59.26 -184.13,-119.57 -270.69,-187.09 -118.52,90.8 -175.87,246.57 -164.23,393.23zm-2858 -286.98c104.13,-117.05 204.87,-237.67 318.3,-345.82 85.51,103.7 186.67,192.79 293.97,273.22 -44.02,35.77 -114.91,56.31 -125.93,119.16 -15.85,108.15 -6.13,218 -8.67,326.77 2.54,116.41 -6.77,233.44 5.93,349.42 0.42,48.04 40,78.94 68.57,112.6 28.99,-25.18 58.2,-50.37 86.35,-76.62 11.43,5.3 34.28,15.87 45.92,21.16 -96.08,110.92 -190.04,224.34 -298.83,322.98 -64.56,-73.46 -153.44,-131.86 -190.9,-224.78 -12.49,-231.32 -1.07,-463.49 -4.23,-695.24 -3.6,-77.65 15.45,-162.96 -35.35,-229.63 -54.81,15.46 -102,104.76 -155.13,46.78zm-2165.72 6.35c131.01,-122.54 273.65,-232.17 410.36,-348.57 148.58,122.12 307.53,235.55 491.86,297.35 -0.63,8.04 -1.69,24.55 -2.11,32.81 -46.15,33.85 -104.98,59.68 -125.08,118.09 -45.51,125.92 -36.82,262.86 -41.27,394.5 -0.64,109.84 9.52,240.85 110.48,307.73 38.09,-30.27 74.91,-71.96 128.89,-64.13 -13.13,28.78 -24.55,59.47 -49.11,80.85 -91.64,89.31 -176.09,185.81 -264.76,277.88 -83.18,-88.47 -177.57,-176.72 -205.93,-299.89 -134.39,92.27 -247.62,211.21 -384.34,299.68 -203.38,-391.9 -497.64,-672.6 -68.99,-1096.3zm85.71 383.49c41.06,161.06 123.81,307.73 209.74,448.47 49.1,-39.58 98.62,-78.73 149.21,-116.4 -3.39,-213.98 -30.49,-441.06 62.01,-641.49 -92.28,-59.89 -182.86,-121.91 -271.75,-186.67 -144.55,115.56 -193.02,321.07 -149.21,496.09zm3670.49 -395.98c108.57,-106.03 204.66,-223.49 295.88,-344.34 90.59,94.18 212.05,181.59 224.13,322.76 83.16,-105.4 157.45,-217.16 238.51,-324.04 67.93,84.47 135.01,169.76 195.77,259.7 -63.07,93.12 -128.05,184.75 -194.3,275.76 -49.09,-77.88 -98.61,-155.56 -155.96,-227.51 -40.21,46.77 -100.31,91.64 -89.74,161.27 3.38,202.54 -3.4,405.5 4.03,607.62 35.54,50.16 89.31,82.74 136.29,121.06 68.15,-46.35 123.17,-119.37 208.04,-135.03 -10.37,64.13 -70.47,97.36 -113.43,139.27 -95.89,82.12 -182.87,173.96 -282.55,251.63 -102.66,-110.69 -217.57,-210.37 -352.38,-279.78 53.54,-43.4 118.72,-93.77 113.65,-171.02 2.13,-184.34 4.02,-368.67 -1.06,-552.8 -1.05,-64.33 -49.95,-110.06 -99.67,-143.07 -32.18,30.48 -67.52,56.73 -103.08,82.53 -6.12,-10.98 -17.99,-33.01 -24.13,-44.01zm-686.55 -92.28c115.97,-99.03 251.63,-172.49 366.33,-273.65 86.37,149.85 182.02,293.33 284.03,433.01 -151.31,107.95 -314.3,198.32 -462.44,310.7 8.69,119.15 12.06,247.2 84.88,348.15 41.26,56.08 102.64,103.28 171.84,117.04 77.89,-35.56 127.83,-137.14 221.18,-128.27 -17.37,38.75 -46.15,70.27 -78.75,96.95 -118.71,98.41 -241.89,191.75 -354.48,297.14 -103.71,-107.51 -235.78,-197.45 -297.99,-337.15 -49.32,-175.25 -32.81,-359.79 -38.73,-539.88 -4.88,-115.15 10.36,-244.68 104.13,-324.04zm184.33 391.32c68.99,-38.73 134.59,-82.75 199.78,-127.4 -67.3,-100.31 -131.22,-202.76 -199.36,-302.64 -15.67,142.64 -11.01,287.2 -0.42,430.04zm-2183.07 -567.61c43.59,-79.37 129.3,-158.94 226.45,-142.01 -16.29,41.68 -51.86,78.73 -52.48,125.29 35.54,48.03 89.73,79.36 122.11,130.37 28.36,42.97 50.36,89.75 72.39,136.3 135.45,-112.38 259.67,-238.53 401.05,-343.7 63.49,164.64 167.61,309.41 237.46,471.1 61.38,141.6 35.98,308.58 -40.86,438.95 -91.85,156.39 -210.57,294.82 -331.62,429.01 -44.65,49.72 -93.97,95.43 -149.43,133.32 -117.67,-86.97 -234.07,-182.86 -375.02,-229.22 -48.89,-16.5 -98.62,-29.41 -145.83,-49.93 59.26,-52.7 130.58,-109.21 133.96,-195.77 4.24,-135.02 0.85,-270.28 1.91,-405.51 2.33,-86.55 -26.25,-177.56 -91.43,-237.04 -17.35,-3.81 -34.7,-6.98 -52.06,-9.54 64.55,-69.82 -1.26,-172.89 43.4,-251.62zm379.68 335.02c-5.93,153.43 3.18,307.32 -2.34,460.75 2.13,64.97 -7.82,132.91 11.64,195.99 84.03,54.8 175.25,97.35 263.5,145.18 70.9,-82.34 131.42,-175.89 159.58,-281.7 15.03,-96.71 14.17,-201.26 -35.56,-288.68 -72.18,-133.76 -155.13,-261.38 -234.07,-391.1 -54.61,51.84 -125.09,93.53 -162.75,159.56zm-2667.53 -21.58c-40.06,336.92 -90.12,319.8 -446.35,533.76 221.38,140.74 413.13,350.05 681.06,399.36 233.24,52.91 519.79,-134.18 502.65,-387.73 -5.51,-185.18 -140.32,-332.69 -281.91,-436.61 -128.46,-93.12 -297.56,-156.4 -455.45,-108.78zm-58.41 -514.71c19.05,156.82 36.4,313.86 58.41,470.26 164.66,-62.22 322.12,-141.59 486.99,-204.02 -26.67,-19.68 -53.13,-40 -76.83,-63.28 -107.09,-105.19 -94.39,-283.39 -209.1,-382.43 -116.19,-69 -274.49,49.73 -259.47,179.47z"/>
  <g id="_1674022501616">
   <path class="fil0" d="M5850.76 7993.63c424.83,124.22 609.3,587.21 653.72,989.74 17.4,157.58 18.45,351.57 -24.18,505.38 -16.73,60.36 -44.05,126.99 -93.49,167.9 -67.38,55.74 -152.7,46.4 -216.14,-10.61 -122.03,-109.67 -152.45,-232.04 -228.18,-367.63 -76.33,-136.68 -175.61,-197.62 -326.86,-235.47l-4.22 -1.05 -4.12 -1.42c-126.74,-43.42 -307.61,27.74 -427.88,69.78l-34.47 12.05 -34.33 -12.46c-113.34,-41.12 -139.43,-190.25 -142.98,-295.19 -4.56,-134.71 23.05,-280.69 72.09,-405.94 138.95,-354.9 433.73,-525.4 811.04,-415.08z"/>
  </g>
  <path class="fil1" d="M5821.98 8092.05c750.21,219.35 658.93,1694.94 417.23,1477.72 -210.86,-189.49 -142.1,-512.03 -598.68,-626.3 -158.28,-54.23 -347.1,18.3 -494.95,69.98 -179.34,-65.07 -73.81,-1140.75 676.4,-921.4z"/>
  <g id="_1674022489232">
   <path class="fil0" d="M14540.09 8563.97c-131.36,42.05 -263.6,75.18 -396.67,110.69 -104.34,27.85 -209.14,57.93 -307.26,103.67 -251.66,117.31 -420.62,334.18 -566.66,563.23l-150.28 235.72 -37.78 -276.98c-40.97,-300.37 109.8,-601.09 304.68,-820.01 194.8,-218.82 478.62,-406.76 773.04,-445.64 150.23,-19.84 364.66,2.01 495.38,80.03 79.73,47.59 136.58,126.35 114.61,222.68 -23.08,101.12 -125.66,171.89 -210.88,218.79l-8.71 4.79 -9.47 3.03z"/>
  </g>
  <path class="fil1" d="M14172.58 8136.31c288.19,-38.05 744.8,105.17 336.25,330 -585.9,187.57 -881.5,123.27 -1325.79,820.13 -68.35,-501.13 484.3,-1083.41 989.54,-1150.13z"/>
  <g id="_1674022489952">
   <path class="fil0" d="M10586.85 9571.32c113.61,-53.42 229.12,-108.3 338.23,-170.45 69.19,-39.41 136.67,-82.74 196.41,-135.65 122.75,-108.7 219.32,-271.91 308.02,-408.49l1.82 -2.8 1.99 -2.67c58.47,-78.36 148.05,-125.14 244.85,-86.88 73.22,28.94 124.19,98.23 155.86,167.69 63.8,139.93 78.88,345.46 -32.44,465.51 -130.81,141.06 -274.79,242.34 -458.12,304.03 -227.22,76.46 -483.05,81.03 -719.99,64.8l-394.09 -27 357.46 -168.09z"/>
  </g>
  <path class="fil2" d="M11515.51 8912.58c167.45,-224.44 362.84,251.42 210.89,415.28 -231.07,249.18 -511.99,376.25 -1095.91,336.25 580.91,-273.17 614.71,-335.32 885.02,-751.53z"/>
  <g id="_1674022486688">
   <path class="fil0" d="M4470.05 9407.3c189.24,-93.5 374.8,-22.87 517.85,114.96 115.76,111.55 215.85,278.45 260.69,432.07l53.73 184.07 -182.92 -57.52c-151.79,-47.74 -237.35,-114.19 -407.8,-91.43 -150.47,20.09 -323.4,-33.33 -402.89,-170.88 -39.57,-68.48 -47.35,-147.52 -19.4,-221.95 31.24,-83.21 100.11,-144.2 175.94,-186.79l2.37 -1.33 2.43 -1.2z"/>
  </g>
  <path class="fil2" d="M4515.47 9499.23c294.28,-145.4 564.23,242.45 634.69,483.83 -147.39,-46.35 -250.17,-122.22 -452.13,-95.25 -272.79,36.42 -467.79,-228.36 -182.56,-388.58z"/>
  <g id="_1674022487168">
   <path class="fil0" d="M9536.2 9349.26c-98.09,-125.28 -130.99,-228.51 -284.36,-306.26 -135.27,-68.57 -247.7,-210.65 -235.34,-368.97 6.16,-78.86 44.48,-148.4 109.68,-193.93 72.8,-50.85 164.24,-62.16 250.78,-54.34l2.71 0.24 2.68 0.39c400.13,57.61 431.82,588.31 331.99,891.71l-59.93 182.15 -118.21 -150.99z"/>
  </g>
  <path class="fil1" d="M9367.74 8527.88c324.89,46.78 327.79,519.32 249.2,758.17 -95.24,-121.66 -137.01,-242.38 -318.75,-334.51 -245.46,-124.44 -256.28,-453.1 69.55,-423.66z"/>
  <path class="fil3" d="M12844.23 9954.56c-77.4,43.56 -162.68,68.13 -244.72,100.81 -279.25,118.19 -539.96,302.65 -701.95,563.36 271.14,-300.34 640.54,-495.93 1028.48,-598.13 132.09,-33.83 270.67,-29.66 400.91,-72.99 535.25,-156.84 880.15,144.17 765.21,684.33 -50.06,230.35 -203.47,442.86 -421.07,541.35 -281.41,143.62 -496.39,-38.88 -869.27,22.71 87.6,-148.08 194.2,-284.81 318.18,-404.39 -329.22,145.61 -610.66,524.7 -587.69,945.04 -12.02,445.46 -497.12,393.63 -485.04,-94.32 -3.57,-313.57 -56.26,-495.48 -352.48,-460 76.47,-159.68 229.88,-261.41 361.29,-373.34 -114.25,46.81 -224.33,106.6 -317.95,187.71 -208.84,189.89 -328.37,411.23 -212.05,720.95 60.95,211.81 225.26,380.29 269.75,596.97 95.83,463.54 -617.54,554.01 -606.7,141.13 -3.48,-216.45 36.85,-440.08 -36.16,-649.57 -96.88,-319.91 -403.38,-328.21 -668.34,-248.2 164.77,-372.18 441.7,-702.64 811.79,-882.94 -1254.81,348.39 -841.22,2071.77 -1646.06,1805.28 -583.64,-176.76 -876.38,-1128.16 -784.91,-1663.69 66.19,-487.42 551.7,-957.82 923.49,-1107.26 63.96,-7.41 128.39,-3.24 192.81,-4.4 72.8,488.62 279.21,618.26 948.99,491.29 -175.44,249.05 -564.44,108.65 -672.29,723.5 131.09,-365.05 337.93,-439.93 655.13,-611.1 182.16,-88.29 359.44,-188.64 519.11,-313.55 459.51,-347.67 918.59,-458.85 1411.54,-40.55zm1035.42 270.21l0 0c-1.39,167.32 23.18,342.98 -45.42,501.49 -38.93,109.61 -131.86,184.69 -200.69,274.61 145.54,-55.15 265.58,-179.13 301.04,-332.32 40.78,-149.24 6.95,-305.66 -54.93,-443.78zm-4554.89 633.12c289.7,-356.2 347.1,-386.09 790.94,-386.09 -387.57,-166.48 -682.26,-36.99 -790.94,386.09zm-91.77 694.99l0 0c65.39,339.06 394.65,652.75 698.24,320.73 -385.24,139.38 -481.5,61.1 -698.24,-320.73z"/>
  <path class="fil3" d="M6797.85 10068.81c994.56,-813.43 1587.55,319.64 2108.85,341.35 -66.74,150.4 -115.87,306.83 -151.09,467.42 -119.12,-66.27 -245.42,-117.95 -376.12,-155.49 133.48,59.55 265.57,126.53 375.88,224.09 -15.75,213.9 19.7,425.48 79.26,630.34 -212.88,142.1 -262.46,253.81 -283.19,508.21 -21.59,242.18 152.63,651.33 -222.47,724.66 -216.91,32.9 -415.05,-188.64 -378.21,-400.22 73.47,-406.98 600.87,-916.72 -20.39,-1361.49 -88.76,-70.22 -193.27,-114.94 -296.4,-159.2 142.29,107.99 296.86,210.65 390.72,367.31 -546.24,9.58 -206.88,470.99 -427.33,790.7 -167.26,232.87 -396.2,68.25 -411.81,-149.01 -21.17,-283.54 -151.22,-590.21 -364.53,-784.44 -79.48,-75.32 -171.25,-136.27 -268.59,-186.33 133.49,117.27 257.7,247.73 348.08,401.84 -382.15,-66.32 -825.64,198.35 -1129.82,-118.68 -289.31,-282.18 -397.64,-782.54 -58.55,-1069.69 468.22,-345.9 1734.19,202.25 2078.72,554.8 -275.45,-386.67 -575.31,-523.86 -993.01,-626.17zm-785.37 1070.18c-256.49,-294.09 -301,-362.49 -296.17,-777.63 -121.9,301.97 -53.24,655.62 296.17,777.63z"/>
  <path class="fil1" d="M13633.08 11291.48c104.51,-32.91 188.87,-105.45 285.5,-154.11 38.94,433.12 133.72,857.91 217.38,1283.85 98.26,446.57 199.53,895.45 374.73,1319.3 172.41,421.08 380.51,826.63 590.71,1229.63 23.64,31.52 -0.46,63.04 -25.96,82.96 -1252.75,1102.17 -3180.84,1474.01 -4785.24,1069.73 -49.83,-56.78 -14.14,-142.76 -13.67,-211.12 41.02,-637.53 57.01,-1282.93 -55.39,-1914.89 -72.07,-469.74 -199.76,-927.89 -314.48,-1388.37 89.92,-40.32 188.88,-73.92 253.07,-153.41 181.69,-219.92 148.32,-540.88 328.38,-761.27 71.37,-87.83 191.42,-99.18 296.4,-88.52 124.21,3.93 232.43,96.86 271.6,212.27 84.12,217.84 23.64,453.28 41.25,678.77 19.23,203.01 230.81,349.93 427.79,320.96 163.38,-23.86 299.88,-154.8 353.88,-307.75 31.51,-128.38 16.21,-267.89 -46.13,-384.92 -109.61,-217.84 -272.52,-433.82 -250.28,-690.83 10.2,-134.4 198.38,-213.66 293.62,-114.94 99.19,137.89 60.02,317.72 88.76,474.84 40.55,151.33 138.58,314.24 304.04,346.46 117.27,10.42 226.65,-66.05 289.92,-159.91 118.65,-175.89 25.25,-414.81 152.71,-587.93 67.9,-105.67 206.71,-121.89 320.27,-97.1 196.29,43.57 408.1,69.76 601.14,-3.7z"/>
  <path class="fil3" d="M14023.8 11189.51c368.46,-22.48 730.68,140.9 989.77,397.67 293.15,296.4 486.89,683.87 569.15,1091.04 55.39,214.36 35.46,437.53 35.92,656.53 -26.18,315.4 -130.93,625.23 -302.88,891.27 -84.82,128.16 -185.4,248.66 -312.63,336.49 -76.7,-165.23 -139.73,-336.26 -215.51,-501.72 -19.47,-51.45 -52.84,-101.73 -52.38,-158.04 51.45,-71.38 122.13,-127.46 168.72,-203.01 333.47,-509.14 209.95,-1264.85 -277.4,-1632.39 -140.67,-111.24 -319.8,-152.49 -495.93,-156.66 -43.33,-239.39 -86.44,-478.78 -106.83,-721.18z"/>
  <path class="fil4" d="M5725.35 11412.21c0.23,-38 12.74,-73.92 20.62,-110.31 177.05,125.61 395.35,203.01 613.89,180.77 170.32,-13.91 335.56,-90.62 508.2,-56.55 117.27,41.25 178.68,163.84 198.84,279.25 27.11,125.6 12.98,264.65 84.36,377.27 70.44,101.51 190.95,191.42 320.73,166.86 171.02,-41.26 261.63,-219.69 290.37,-379.6 13.21,-163.14 -30.59,-360.12 98.72,-488.04 128.15,-93.4 303.12,48.66 291.3,191.41 -14.37,210.66 -116.8,399.53 -211.81,583.3 -64.19,122.13 -109.62,263.03 -76.01,401.38 43.57,155.27 169.4,290.83 327.91,330.46 157.82,47.97 332.79,-37.78 422.24,-169.64 75.54,-104.97 56.08,-241.24 46.34,-361.97 -29.66,-173.58 -26.18,-358.28 41.49,-522.81 29.19,-73.93 88.76,-130.01 160.6,-162.46 94.77,263.96 235.44,517.72 442.16,710.3 136.49,128.37 315.4,202.77 500.33,224.78 19.47,61.18 46.81,125.14 25.72,190.03 -139.28,649.57 -285.5,1307.02 -268.82,1975.37 -5.56,451.2 23.64,901.7 78.56,1349.43 -1112.31,627.2 -4063.23,121.17 -5019.53,-813.41 268.36,-561.74 551.55,-1121.4 726.05,-1721.62 134.87,-501.25 224.09,-1013.4 303.58,-1526.02 34.06,-214.82 64.42,-430.8 74.16,-648.18z"/>
  <path class="fil3" d="M4618.55 11802.7c250.98,-269.98 616.66,-455.84 991.16,-429.65 0.46,241.48 -42.18,479.24 -78.8,717.24 -199.99,6.02 -404.15,72.31 -549.92,213.44 -383.77,340.42 -531.62,933.68 -325.6,1408.06 59.56,184.47 195.36,324.67 328.61,458.61 -87.36,224.8 -170.09,451.67 -267.19,672.76 -237.54,-138.59 -399.76,-378.67 -510.53,-625.01 -372.41,-787 -204.86,-1798.78 412.27,-2415.45z"/>
  <path class="fil3" d="M15170.46 15097.61c100.8,149.24 173.8,353.64 79.48,523.74 -461.44,967.29 -4208.83,1874.09 -4907.37,1005.98 -96.63,-111.69 -97.33,-268.82 -92.69,-407.86 468.45,125.2 1413.69,274.7 2519.43,42.27 825.71,-173.56 1803.51,-608.56 2401.15,-1164.13z"/>
  <path class="fil3" d="M4559.22 15418.57c915.44,875.53 3704.01,1556.3 5094.26,838.35 31.52,171.49 5.46,347.93 -133.36,468.9 -946.35,806.29 -4603.12,146.23 -5037.83,-836.82 -74.16,-158.04 -2.32,-330.22 76.93,-470.43z"/>
  <g id="_1674022480640">
   <circle class="fil5 str0" cx="6601.74" cy="11696.66" r="153.56"/>
   <path class="fil6 str1" d="M6490.2 11704.05c7.44,-52.76 55.66,-93.47 114.04,-93.47 51.77,0 95.56,32.03 109.99,76.08 0.54,-3.83 0.87,-7.73 0.97,-11.67 -10.17,-49.75 -56.89,-87.34 -112.99,-87.34 -62.61,0 -113.54,46.84 -115,105.14 0.79,3.83 1.78,7.58 2.99,11.26z"/>
  </g>
  <g id="_1674022479872">
   <circle class="fil5 str0" cx="7139.38" cy="13093.55" r="153.56"/>
   <path class="fil6 str1" d="M7027.83 13100.94c7.44,-52.76 55.66,-93.47 114.04,-93.47 51.77,0 95.56,32.03 109.99,76.08 0.54,-3.83 0.87,-7.73 0.97,-11.67 -10.17,-49.75 -56.89,-87.34 -112.99,-87.34 -62.61,0 -113.54,46.84 -115,105.14 0.79,3.83 1.78,7.58 2.99,11.26z"/>
  </g>
  <g id="_1674022479104">
   <circle class="fil5 str0" cx="6033.55" cy="13685.53" r="153.56"/>
   <path class="fil6 str1" d="M5922 13692.93c7.44,-52.76 55.66,-93.47 114.04,-93.47 51.77,0 95.56,32.03 109.99,76.08 0.54,-3.83 0.87,-7.73 0.97,-11.67 -10.17,-49.75 -56.89,-87.34 -112.99,-87.34 -62.61,0 -113.54,46.84 -115,105.14 0.79,3.83 1.78,7.58 2.99,11.26z"/>
  </g>
  <g id="_1674022479776">
   <circle class="fil5 str0" cx="8973.84" cy="13013.51" r="153.56"/>
   <path class="fil6 str1" d="M8862.3 13020.9c7.44,-52.76 55.66,-93.47 114.04,-93.47 51.77,0 95.56,32.03 109.99,76.08 0.54,-3.83 0.87,-7.73 0.97,-11.67 -10.17,-49.75 -56.89,-87.34 -112.99,-87.34 -62.61,0 -113.54,46.84 -115,105.14 0.79,3.83 1.78,7.58 2.99,11.26z"/>
  </g>
  <g id="_1674022481072">
   <circle class="fil5 str0" cx="8166.9" cy="13410.49" r="153.56"/>
   <path class="fil6 str1" d="M8055.36 13417.88c7.44,-52.76 55.66,-93.47 114.04,-93.47 51.77,0 95.56,32.03 109.99,76.08 0.54,-3.83 0.87,-7.73 0.97,-11.67 -10.17,-49.75 -56.89,-87.34 -112.99,-87.34 -62.61,0 -113.54,46.84 -115,105.14 0.79,3.83 1.78,7.58 2.99,11.26z"/>
  </g>
  <g id="_1674022481024">
   <circle class="fil5 str0" cx="7855" cy="14369.95" r="109.62"/>
   <path class="fil6 str1" d="M7775.37 14375.23c5.31,-37.66 39.74,-66.72 81.41,-66.72 36.96,0 68.22,22.86 78.52,54.3 0.39,-2.73 0.62,-5.52 0.69,-8.33 -7.26,-35.51 -40.61,-62.35 -80.66,-62.35 -44.69,0 -81.05,33.44 -82.09,75.06 0.56,2.73 1.27,5.42 2.13,8.04z"/>
  </g>
  <g id="_1674022479392">
   <circle class="fil5 str0" cx="11967.67" cy="14257.16" r="109.62"/>
   <path class="fil6 str1" d="M11888.04 14262.44c5.31,-37.66 39.74,-66.72 81.41,-66.72 36.96,0 68.22,22.86 78.52,54.3 0.39,-2.73 0.62,-5.52 0.69,-8.33 -7.26,-35.51 -40.61,-62.35 -80.66,-62.35 -44.69,0 -81.05,33.44 -82.09,75.06 0.56,2.73 1.27,5.42 2.13,8.04z"/>
  </g>
  <g id="_1709584352176">
   <circle class="fil5 str0" cx="12658.03" cy="13842.47" r="109.62"/>
   <path class="fil6 str1" d="M12578.4 13847.75c5.31,-37.66 39.74,-66.72 81.41,-66.72 36.96,0 68.22,22.86 78.52,54.3 0.39,-2.73 0.62,-5.52 0.69,-8.33 -7.26,-35.51 -40.61,-62.35 -80.66,-62.35 -44.69,0 -81.05,33.44 -82.09,75.06 0.56,2.73 1.27,5.42 2.13,8.04z"/>
  </g>
  <g id="_1709584347952">
   <circle class="fil5 str0" cx="12328.38" cy="15005.09" r="109.62"/>
   <path class="fil6 str1" d="M12248.75 15010.37c5.31,-37.66 39.74,-66.72 81.41,-66.72 36.96,0 68.22,22.86 78.52,54.3 0.39,-2.73 0.62,-5.52 0.69,-8.33 -7.26,-35.51 -40.61,-62.35 -80.66,-62.35 -44.69,0 -81.05,33.44 -82.09,75.06 0.56,2.73 1.27,5.42 2.13,8.04z"/>
  </g>
  <g id="_1709584347472">
   <circle class="fil5 str0" cx="11574.12" cy="13342.81" r="133.82"/>
   <path class="fil6 str1" d="M11476.91 13349.25c6.48,-45.97 48.51,-81.45 99.38,-81.45 45.12,0 83.28,27.91 95.86,66.3 0.47,-3.34 0.76,-6.74 0.84,-10.17 -8.86,-43.36 -49.57,-76.12 -98.46,-76.12 -54.57,0 -98.95,40.82 -100.22,91.63 0.68,3.34 1.55,6.61 2.6,9.81z"/>
  </g>
  <g id="_1709584348480">
   <circle class="fil5 str0" cx="7496.65" cy="15166.63" r="109.62"/>
   <path class="fil6 str1" d="M7417.02 15171.91c5.31,-37.66 39.74,-66.72 81.41,-66.72 36.96,0 68.22,22.86 78.52,54.3 0.39,-2.73 0.62,-5.52 0.69,-8.33 -7.26,-35.51 -40.61,-62.35 -80.66,-62.35 -44.69,0 -81.05,33.44 -82.09,75.06 0.56,2.73 1.27,5.42 2.13,8.04z"/>
  </g>
  <g id="_1709584345888">
   <circle class="fil5 str0" cx="8326.33" cy="15312.48" r="134.13"/>
   <path class="fil6 str1" d="M8228.9 15318.94c6.49,-46.08 48.62,-81.64 99.61,-81.64 45.22,0 83.47,27.97 96.08,66.45 0.47,-3.35 0.76,-6.76 0.84,-10.2 -8.88,-43.45 -49.69,-76.29 -98.69,-76.29 -54.69,0 -99.18,40.92 -100.45,91.84 0.68,3.35 1.55,6.63 2.61,9.84z"/>
  </g>
  <g id="_1709584340704">
   <circle class="fil5 str0" cx="7101.36" cy="13960.33" r="99.3"/>
   <path class="fil6 str1" d="M7029.23 13965.11c4.81,-34.11 35.99,-60.44 73.74,-60.44 33.48,0 61.8,20.71 71.13,49.19 0.35,-2.47 0.57,-4.99 0.63,-7.54 -6.58,-32.17 -36.79,-56.48 -73.07,-56.48 -40.49,0 -73.42,30.29 -74.37,67.99 0.51,2.47 1.16,4.91 1.94,7.28z"/>
  </g>
  <g id="_1709584341472">
   <circle class="fil5 str0" cx="10773.24" cy="12971.08" r="153.56"/>
   <path class="fil6 str1" d="M10661.69 12978.47c7.44,-52.76 55.66,-93.47 114.04,-93.47 51.77,0 95.56,32.03 109.99,76.08 0.54,-3.83 0.87,-7.73 0.97,-11.67 -10.17,-49.75 -56.89,-87.34 -112.99,-87.34 -62.61,0 -113.54,46.84 -115,105.14 0.79,3.83 1.78,7.58 2.99,11.26z"/>
  </g>
  <g id="_1709584338064">
   <circle class="fil5 str0" cx="12572.62" cy="12928.65" r="153.56"/>
   <path class="fil6 str1" d="M12461.08 12936.04c7.44,-52.76 55.66,-93.47 114.04,-93.47 51.77,0 95.56,32.03 109.99,76.08 0.54,-3.83 0.87,-7.73 0.97,-11.67 -10.17,-49.75 -56.89,-87.34 -112.99,-87.34 -62.61,0 -113.54,46.84 -115,105.14 0.79,3.83 1.78,7.58 2.99,11.26z"/>
  </g>
  <g id="_1709584338256">
   <circle class="fil5 str0" cx="13668.28" cy="13444.61" r="153.56"/>
   <path class="fil6 str1" d="M13556.74 13452.01c7.44,-52.76 55.66,-93.47 114.04,-93.47 51.77,0 95.56,32.03 109.99,76.08 0.54,-3.83 0.87,-7.73 0.97,-11.67 -10.17,-49.75 -56.89,-87.34 -112.99,-87.34 -62.61,0 -113.54,46.84 -115,105.14 0.79,3.83 1.78,7.58 2.99,11.26z"/>
  </g>
  <g id="_1709584336192">
   <circle class="fil5 str0" cx="13040.16" cy="11591.45" r="153.56"/>
   <path class="fil6 str1" d="M12928.61 11598.85c7.44,-52.76 55.66,-93.47 114.04,-93.47 51.77,0 95.56,32.03 109.99,76.08 0.54,-3.83 0.87,-7.73 0.97,-11.67 -10.17,-49.75 -56.89,-87.34 -112.99,-87.34 -62.61,0 -113.54,46.84 -115,105.14 0.79,3.83 1.78,7.58 2.99,11.26z"/>
  </g>
  <g id="_1709584396096">
   <circle class="fil5 str0" cx="11060.64" cy="14314.36" r="153.56"/>
   <path class="fil6 str1" d="M10949.09 14321.76c7.44,-52.76 55.66,-93.47 114.04,-93.47 51.77,0 95.56,32.03 109.99,76.08 0.54,-3.83 0.87,-7.73 0.97,-11.67 -10.17,-49.75 -56.89,-87.34 -112.99,-87.34 -62.61,0 -113.54,46.84 -115,105.14 0.79,3.83 1.78,7.58 2.99,11.26z"/>
  </g>
  <g id="_1709584395856">
   <circle class="fil5 str0" cx="12982.05" cy="14866.3" r="153.56"/>
   <path class="fil6 str1" d="M12870.5 14873.69c7.44,-52.76 55.66,-93.47 114.04,-93.47 51.77,0 95.56,32.03 109.99,76.08 0.54,-3.83 0.87,-7.73 0.97,-11.67 -10.17,-49.75 -56.89,-87.34 -112.99,-87.34 -62.61,0 -113.54,46.84 -115,105.14 0.79,3.83 1.78,7.58 2.99,11.26z"/>
  </g>
  <g id="_1709584387456">
   <circle class="fil5 str0" cx="10966.4" cy="15848.1" r="153.56"/>
   <path class="fil6 str1" d="M10854.85 15855.49c7.44,-52.76 55.66,-93.47 114.04,-93.47 51.77,0 95.56,32.03 109.99,76.08 0.54,-3.83 0.87,-7.73 0.97,-11.67 -10.17,-49.75 -56.89,-87.34 -112.99,-87.34 -62.61,0 -113.54,46.84 -115,105.14 0.79,3.83 1.78,7.58 2.99,11.26z"/>
  </g>
  <g id="_1709584385152">
   <circle class="fil5 str0" cx="13943.6" cy="15507.36" r="153.56"/>
   <path class="fil6 str1" d="M13832.05 15514.76c7.44,-52.76 55.66,-93.47 114.04,-93.47 51.77,0 95.56,32.03 109.99,76.08 0.54,-3.83 0.87,-7.73 0.97,-11.67 -10.17,-49.75 -56.89,-87.34 -112.99,-87.34 -62.61,0 -113.54,46.84 -115,105.14 0.79,3.83 1.78,7.58 2.99,11.26z"/>
  </g>
  <g id="_1709584381504">
   <circle class="fil5 str0" cx="11468.66" cy="15197.83" r="153.56"/>
   <path class="fil6 str1" d="M11357.11 15205.22c7.44,-52.76 55.66,-93.47 114.04,-93.47 51.77,0 95.56,32.03 109.99,76.08 0.54,-3.83 0.87,-7.73 0.97,-11.67 -10.17,-49.75 -56.89,-87.34 -112.99,-87.34 -62.61,0 -113.54,46.84 -115,105.14 0.79,3.83 1.78,7.58 2.99,11.26z"/>
  </g>
  <g id="_1709584379920">
   <circle class="fil5 str0" cx="8711.7" cy="14404.23" r="153.56"/>
   <path class="fil6 str1" d="M8600.16 14411.62c7.44,-52.76 55.66,-93.47 114.04,-93.47 51.77,0 95.56,32.03 109.99,76.08 0.54,-3.83 0.87,-7.73 0.97,-11.67 -10.17,-49.75 -56.89,-87.34 -112.99,-87.34 -62.61,0 -113.54,46.84 -115,105.14 0.79,3.83 1.78,7.58 2.99,11.26z"/>
  </g>
  <g id="_1709584376512">
   <circle class="fil5 str0" cx="6771.38" cy="15065.01" r="153.56"/>
   <path class="fil6 str1" d="M6659.83 15072.41c7.44,-52.76 55.66,-93.47 114.04,-93.47 51.77,0 95.56,32.03 109.99,76.08 0.54,-3.83 0.87,-7.73 0.97,-11.67 -10.17,-49.75 -56.89,-87.34 -112.99,-87.34 -62.61,0 -113.54,46.84 -115,105.14 0.79,3.83 1.78,7.58 2.99,11.26z"/>
  </g>
  <g id="_1709584373536">
   <circle class="fil5 str0" cx="5824.1" cy="15758.31" r="153.56"/>
   <path class="fil6 str1" d="M5712.56 15765.7c7.44,-52.76 55.66,-93.47 114.04,-93.47 51.77,0 95.56,32.03 109.99,76.08 0.54,-3.83 0.87,-7.73 0.97,-11.67 -10.17,-49.75 -56.89,-87.34 -112.99,-87.34 -62.61,0 -113.54,46.84 -115,105.14 0.79,3.83 1.78,7.58 2.99,11.26z"/>
  </g>
  <g id="_1709584372384">
   <circle class="fil5 str0" cx="8851.25" cy="15929.92" r="153.56"/>
   <path class="fil6 str1" d="M8739.71 15937.31c7.44,-52.76 55.66,-93.47 114.04,-93.47 51.77,0 95.56,32.03 109.99,76.08 0.54,-3.83 0.87,-7.73 0.97,-11.67 -10.17,-49.75 -56.89,-87.34 -112.99,-87.34 -62.61,0 -113.54,46.84 -115,105.14 0.79,3.83 1.78,7.58 2.99,11.26z"/>
  </g>
  <g id="_1709584373920">
   <circle class="fil5 str0" cx="7501.14" cy="12475.2" r="88.04"/>
   <path class="fil6 str1" d="M7437.19 12479.44c4.26,-30.25 31.91,-53.59 65.38,-53.59 29.68,0 54.79,18.36 63.07,43.62 0.3,-2.2 0.49,-4.43 0.55,-6.69 -5.83,-28.53 -32.62,-50.08 -64.78,-50.08 -35.9,0 -65.1,26.86 -65.94,60.28 0.45,2.2 1.02,4.35 1.72,6.46z"/>
  </g>
  <g id="_1709731622128">
   <circle class="fil5 str0" cx="6403.63" cy="12950.33" r="88.04"/>
   <path class="fil6 str1" d="M6339.68 12954.57c4.26,-30.25 31.91,-53.59 65.38,-53.59 29.68,0 54.79,18.36 63.07,43.62 0.3,-2.2 0.49,-4.43 0.55,-6.69 -5.83,-28.53 -32.62,-50.08 -64.78,-50.08 -35.9,0 -65.1,26.86 -65.94,60.28 0.45,2.2 1.02,4.35 1.72,6.46z"/>
  </g>
  <g id="_1709731622704">
   <circle class="fil5 str0" cx="6159.07" cy="14597.97" r="88.04"/>
   <path class="fil6 str1" d="M6095.12 14602.21c4.26,-30.25 31.91,-53.59 65.38,-53.59 29.68,0 54.79,18.36 63.07,43.62 0.3,-2.2 0.49,-4.43 0.55,-6.69 -5.83,-28.53 -32.62,-50.08 -64.78,-50.08 -35.9,0 -65.1,26.86 -65.94,60.28 0.45,2.2 1.02,4.35 1.72,6.46z"/>
  </g>
  <g id="_1709731619728">
   <circle class="fil5 str0" cx="13273.41" cy="12781.98" r="88.04"/>
   <path class="fil6 str1" d="M13209.46 12786.22c4.26,-30.25 31.91,-53.59 65.38,-53.59 29.68,0 54.79,18.36 63.07,43.62 0.3,-2.2 0.49,-4.43 0.55,-6.69 -5.83,-28.53 -32.62,-50.08 -64.78,-50.08 -35.9,0 -65.1,26.86 -65.94,60.28 0.45,2.2 1.02,4.35 1.72,6.46z"/>
  </g>
  <g id="_1709731617856">
   <circle class="fil5 str0" cx="13559.52" cy="14399.37" r="88.04"/>
   <path class="fil6 str1" d="M13495.57 14403.61c4.26,-30.25 31.91,-53.59 65.38,-53.59 29.68,0 54.79,18.36 63.07,43.62 0.3,-2.2 0.49,-4.43 0.55,-6.69 -5.83,-28.53 -32.62,-50.08 -64.78,-50.08 -35.9,0 -65.1,26.86 -65.94,60.28 0.45,2.2 1.02,4.35 1.72,6.46z"/>
  </g>
  <g id="_1709731613680">
   <circle class="fil5 str0" cx="12787.74" cy="15777.59" r="88.04"/>
   <path class="fil6 str1" d="M12723.79 15781.83c4.26,-30.25 31.91,-53.59 65.38,-53.59 29.68,0 54.79,18.36 63.07,43.62 0.3,-2.2 0.49,-4.43 0.55,-6.69 -5.83,-28.53 -32.62,-50.08 -64.78,-50.08 -35.9,0 -65.1,26.86 -65.94,60.28 0.45,2.2 1.02,4.35 1.72,6.46z"/>
  </g>
  <g id="_1709731674016">
   <circle class="fil5 str0" cx="11619.24" cy="16024.07" r="88.04"/>
   <path class="fil6 str1" d="M11555.29 16028.31c4.26,-30.25 31.91,-53.59 65.38,-53.59 29.68,0 54.79,18.36 63.07,43.62 0.3,-2.2 0.49,-4.43 0.55,-6.69 -5.83,-28.53 -32.62,-50.08 -64.78,-50.08 -35.9,0 -65.1,26.86 -65.94,60.28 0.45,2.2 1.02,4.35 1.72,6.46z"/>
  </g>
  <g id="_1709731673440">
   <circle class="fil5 str0" cx="12208.87" cy="12352.01" r="88.04"/>
   <path class="fil6 str1" d="M12144.92 12356.25c4.26,-30.25 31.91,-53.59 65.38,-53.59 29.68,0 54.79,18.36 63.07,43.62 0.3,-2.2 0.49,-4.43 0.55,-6.69 -5.83,-28.53 -32.62,-50.08 -64.78,-50.08 -35.9,0 -65.1,26.86 -65.94,60.28 0.45,2.2 1.02,4.35 1.72,6.46z"/>
  </g>
  <g id="_1709731670464">
   <circle class="fil5 str0" cx="6992.22" cy="15963.23" r="88.04"/>
   <path class="fil6 str1" d="M6928.27 15967.47c4.26,-30.25 31.91,-53.59 65.38,-53.59 29.68,0 54.79,18.36 63.07,43.62 0.3,-2.2 0.49,-4.43 0.55,-6.69 -5.83,-28.53 -32.62,-50.08 -64.78,-50.08 -35.9,0 -65.1,26.86 -65.94,60.28 0.45,2.2 1.02,4.35 1.72,6.46z"/>
  </g>
  <g id="_1709731671376">
   <circle class="fil5 str0" cx="8221.36" cy="16137.14" r="88.04"/>
   <path class="fil6 str1" d="M8157.41 16141.38c4.26,-30.25 31.91,-53.59 65.38,-53.59 29.68,0 54.79,18.36 63.07,43.62 0.3,-2.2 0.49,-4.43 0.55,-6.69 -5.83,-28.53 -32.62,-50.08 -64.78,-50.08 -35.9,0 -65.1,26.86 -65.94,60.28 0.45,2.2 1.02,4.35 1.72,6.46z"/>
  </g>
  <path class="fil7" d="M7648.34 10894.65c0,0 399.74,83.21 647.33,315.49 247.59,232.28 324.76,579.41 324.76,579.41 41.56,-77.96 107.29,-141.66 214.2,-213.03 -59.56,-204.86 -95.01,-416.44 -79.26,-630.34 -110.31,-97.56 -242.4,-164.54 -375.88,-224.09 130.7,37.54 257,89.22 376.12,155.49 35.22,-160.59 84.35,-317.02 151.09,-467.42 -521.3,-21.71 -1114.29,-1154.78 -2108.85,-341.35 417.7,102.31 717.56,239.5 993.01,626.17 -316.38,-323.75 -1409.79,-812.44 -1948.92,-622.27 0,0 -67.36,627.69 209.42,874.1 276.78,246.41 741.62,226.61 741.62,226.61 -71.89,-89.63 -154.28,-170.92 -240.55,-246.71 0,0 339.19,-32.26 653.1,139.89 313.91,172.15 493.35,392.12 493.36,392.12 24.95,-117.17 99.13,-198.95 325.8,-202.93 -93.86,-156.66 -248.43,-259.32 -390.72,-367.31 4.79,2.05 9.58,4.11 14.37,6.17z"/>
  <path class="fil7" d="M9130.15 10700.71c-104.23,608.69 102.84,852.17 102.84,852.17 216.74,381.83 313,460.11 698.24,320.73 51.95,-32.92 174.16,-594.77 493.19,-808.66 314.95,-211.15 789.26,-364.39 801.33,-368.27 0.08,-0.03 0.16,-0.06 0.24,-0.08 22.87,-7.68 46.35,-14.87 70.43,-21.56 -370.09,180.3 -647.02,510.76 -811.79,882.94 229.9,-69.42 491.07,-72.36 619.45,137.05 0,0 16.86,-276.06 238.91,-520.05 222.05,-243.99 660.4,-343.3 660.4,-343.3 17.43,-7.89 35.01,-15.45 52.69,-22.69 -131.41,111.93 -284.82,213.66 -361.29,373.34 181.74,-21.77 271.81,38.29 315.11,160.39 0,0 166.35,-141.01 289.62,-231.65 123.27,-90.64 250.16,-210.28 409.69,-250.16 159.53,-39.88 378.82,-54.35 378.82,-54.35 10.6,-5.23 21.26,-10.21 31.97,-14.95 -75.92,73.23 -145.33,152.89 -207.84,237.65 0,0 546.69,32.83 720.72,-347.86 174.03,-380.69 87.47,-763.74 87.47,-763.74 -112.93,-21.72 -245.94,-13.26 -393.4,29.95 -130.24,43.33 -268.82,39.16 -400.91,72.99 -387.94,102.2 -757.34,297.79 -1028.48,598.13 161.99,-260.71 422.7,-445.17 701.95,-563.36 82.04,-32.68 167.32,-57.25 244.72,-100.81 -492.95,-418.3 -952.03,-307.12 -1411.54,40.55 -159.67,124.91 -336.95,225.26 -519.11,313.55 -317.2,171.17 -524.04,246.05 -655.13,611.1 107.85,-614.85 496.85,-474.45 672.29,-723.5 -669.78,126.97 -876.19,-2.67 -948.99,-491.29 -64.42,1.16 -128.85,-3.01 -192.81,4.4 0,0 -554.56,382.65 -658.79,991.34zm985.55 -228.91c-443.84,0 -501.24,29.89 -790.94,386.09 108.68,-423.08 403.37,-552.57 790.94,-386.09z"/>
  <g id="_1709731666912">
   <path class="fil8" d="M6201.87 11966.65c-23.02,1312.24 -84.19,2166.36 -899.14,3243.37 -56.4,68.02 -157.27,77.43 -225.29,21.03 -68.02,-56.4 -77.43,-157.27 -21.03,-225.29 765.38,-1011.56 803.25,-1829.66 825.94,-3056.63 4.84,-88.23 80.29,-155.84 168.52,-151 88.23,4.84 155.84,80.29 151,168.52z"/>
  </g>
  <path class="fil5" d="M6042.11 11957.89c-22.04,401.85 106.14,1981.9 -862.54,3150"/>
  <g id="_1709731664368">
   <path class="fil8 str1" d="M13507.9 11709.83c23.02,1312.24 84.19,2166.36 899.14,3243.37 56.4,68.02 157.27,77.43 225.29,21.03 68.02,-56.4 77.43,-157.27 21.03,-225.29 -765.38,-1011.56 -803.25,-1829.66 -825.94,-3056.63 -4.84,-88.23 -80.29,-155.84 -168.52,-151 -88.23,4.84 -155.84,80.29 -151,168.52z"/>
  </g>
  <path class="fil5" d="M13667.66 11701.07c22.04,401.85 -106.14,1981.9 862.54,3150"/>
  <g id="_1709731665232">
   <path class="fil8" d="M5313.78 11693.05c-1000.09,423.33 -1300.01,1862.36 -620.3,2729.28 26.25,28.38 24.52,72.67 -3.86,98.92 -28.38,26.25 -72.67,24.52 -98.92,-3.86 -746.48,-951.94 -424.68,-2490.17 680.4,-2957.68 36.82,-11.79 76.22,8.51 88.01,45.33 11.79,36.82 -8.51,76.22 -45.33,88.01z"/>
  </g>
  <path class="fil5" d="M5292.44 11626.38c-947.91,303.3 -1420.55,2010.67 -650.35,2843.48"/>
  <g id="_1709731664272">
   <path class="fil8" d="M14233.94 11427.05c1037.6,320.6 1480.73,1722.16 891.65,2653.05 -23.26,30.88 -17.08,74.77 13.79,98.03 30.88,23.26 74.77,17.09 98.03,-13.79 646.96,-1022.19 172.08,-2520.25 -974.42,-2874.25 -37.82,-8.03 -74.97,16.13 -83,53.95 -8.03,37.82 16.13,74.98 53.95,83.01z"/>
  </g>
  <path class="fil5" d="M14248.47 11358.57c973.6,206.42 1615.57,1857.6 933.03,2763.65"/>
  <path class="fil9 str2" d="M15139.9 9377.84l-16.18 204.13c-9.08,114.56 42.83,217.49 140.35,278.28l175.18 109.22 -204.13 -16.18c-114.56,-9.08 -217.49,42.83 -278.28,140.35l-109.22 175.18 16.18 -204.13c9.08,-114.56 -42.83,-217.49 -140.35,-278.28l-175.18 -109.22 204.13 16.18c114.56,9.08 217.49,-42.83 278.28,-140.35l109.22 -175.18z"/>
  <path class="fil9 str2" d="M7995.25 8505.01l110.66 172.3c62.1,96.69 165.72,147.22 280.14,136.6l205.56 -19.08 -172.3 110.66c-96.69,62.1 -147.22,165.72 -136.6,280.14l19.08 205.56 -110.66 -172.3c-62.1,-96.69 -165.72,-147.22 -280.14,-136.6l-205.56 19.08 172.3 -110.66c96.69,-62.1 147.22,-165.72 136.6,-280.14l-19.08 -205.56z"/>
  <path class="fil9 str2" d="M4215.87 8301.86l44.31 173.94c24.88,97.61 97.06,168.32 195.17,191.18l176.23 41.06 -173.94 44.31c-97.61,24.87 -168.32,97.06 -191.18,195.16l-41.05 176.24 -44.32 -173.94c-24.87,-97.61 -97.06,-168.32 -195.16,-191.18l-176.24 -41.06 173.94 -44.31c97.61,-24.87 168.33,-97.06 191.18,-195.17l41.06 -176.23z"/>
  <path class="fil10" d="M9992.4 543.19c5227.05,0 9464.41,4237.36 9464.41,9464.41 0,5227.05 -4237.36,9464.41 -9464.41,9464.41 -5227.05,0 -9464.41,-4237.36 -9464.41,-9464.41 0,-5227.05 4237.36,-9464.41 9464.41,-9464.41zm0 19331.36c5449.37,0 9866.95,-4417.58 9866.95,-9866.95 0,-5449.37 -4417.58,-9866.95 -9866.95,-9866.95 -5449.37,0 -9866.95,4417.58 -9866.95,9866.95 0,5449.37 4417.58,9866.95 9866.95,9866.95z"/>
  <g id="_1709731660048">
   <path class="fil0" d="M14027.32 2615.8c34.51,-98.17 57.93,-196.19 121.26,-281.64 54.16,-73.07 123.2,-141.54 206.94,-179.6 101.05,-45.93 217.34,-41.55 304.23,32.52 167.31,142.63 87.07,379.39 -22.83,527.69 -63.47,85.63 -146.88,132.31 -231.19,192.6 -94.35,67.49 -219.75,72.46 -310.28,-4.75 -84.19,-71.81 -103.81,-185.28 -68.13,-286.82z"/>
  </g>
  <path class="fil1" d="M14216.01 2682.12c34.03,-96.79 51.79,-172.96 93.25,-228.87 182.95,-246.87 350.01,-104.54 166.98,142.43 -41.45,55.92 -106.62,91.63 -186.86,149.02 -24.16,17.28 -48.14,19.42 -64.14,5.75 -16.03,-13.65 -19.46,-39.19 -9.23,-68.33z"/>
  <g id="_1709731644784">
   <path class="fil0" d="M11259.33 5484c0,165.42 -134.58,296.45 -243.39,405.26l-106.07 106.06 -106.07 -106.06c-108.81,-108.81 -243.39,-239.84 -243.39,-405.26 0,-181.67 202.57,-238.15 349.46,-238.15 146.89,0 349.46,56.48 349.46,238.15z"/>
  </g>
  <path class="fil1" d="M11109.32 5484c0,99.73 -99.72,199.46 -199.45,299.19 -99.73,-99.73 -199.46,-199.46 -199.46,-299.19 0,-117.53 398.91,-117.53 398.91,0z"/>
 </g>
</svg>
